<svg xmlns="http://www.w3.org/2000/svg" xmlns:xlink="http://www.w3.org/1999/xlink" width="118" height="118" viewBox="0 0 118 118">
  <defs>
    <filter id="Rectangle_411831" x="0" y="0" width="118" height="118" filterUnits="userSpaceOnUse">
      <feOffset dy="3" input="SourceAlpha"/>
      <feGaussianBlur stdDeviation="3" result="blur"/>
      <feFlood flood-opacity="0.161"/>
      <feComposite operator="in" in2="blur"/>
      <feComposite in="SourceGraphic"/>
    </filter>
  </defs>
  <g id="Group_1205550" data-name="Group 1205550" transform="translate(6766.27 9891)">
    <g id="Group_1204752" data-name="Group 1204752" transform="translate(-7558.051 -11847)">
      <g id="Group_1203409" data-name="Group 1203409" transform="translate(465 -1896)">
        <g transform="matrix(1, 0, 0, 1, 326.78, 3852)" filter="url(#Rectangle_411831)">
          <g id="Rectangle_411831-2" data-name="Rectangle 411831" transform="translate(9 6)" fill="#ffc94a" stroke="#fff" stroke-width="2">
            <path d="M5,0H68a32,32,0,0,1,32,32V95a5,5,0,0,1-5,5H32A32,32,0,0,1,0,68V5A5,5,0,0,1,5,0Z" stroke="none"/>
            <path d="M5,1H68A31,31,0,0,1,99,32V95a4,4,0,0,1-4,4H32A31,31,0,0,1,1,68V5A4,4,0,0,1,5,1Z" fill="none"/>
          </g>
        </g>
      </g>
    </g>
    <g id="beneficios" transform="translate(-6739.977 -9867.717)">
      <path id="Path_1287526" data-name="Path 1287526" d="M154.9,8H120V71.251h47.984V21.086H154.9Zm0,0" transform="translate(-103.65 -6.909)" fill="#dcf4ca"/>
      <path id="Path_1287527" data-name="Path 1287527" d="M376,21.086h13.086L376,8Zm0,0" transform="translate(-324.753 -6.909)" fill="#5eac24"/>
      <path id="Path_1287528" data-name="Path 1287528" d="M29.811,424H10.181A2.181,2.181,0,0,0,8,426.181v2.181a2.181,2.181,0,0,0,2.181,2.181h19.63a2.181,2.181,0,0,0,2.181-2.181v-2.181A2.181,2.181,0,0,0,29.811,424Zm0,0" transform="translate(-6.917 -366.201)" fill="#754c29"/>
      <path id="Path_1287529" data-name="Path 1287529" d="M45.811,376H26.181A2.181,2.181,0,0,0,24,378.181v2.181a2.181,2.181,0,0,0,2.181,2.181h19.63a2.181,2.181,0,0,0,2.181-2.181v-2.181A2.181,2.181,0,0,0,45.811,376Zm0,0" transform="translate(-20.736 -324.745)" fill="#8b5e3c"/>
      <path id="Path_1287530" data-name="Path 1287530" d="M29.811,328H10.181A2.181,2.181,0,0,0,8,330.181v2.181a2.181,2.181,0,0,0,2.181,2.181h19.63a2.181,2.181,0,0,0,2.181-2.181v-2.181A2.181,2.181,0,0,0,29.811,328Zm0,0" transform="translate(-6.917 -283.288)" fill="#a97c50"/>
      <path id="Path_1287531" data-name="Path 1287531" d="M29.811,280H10.181A2.181,2.181,0,0,0,8,282.181v2.181a2.181,2.181,0,0,0,2.181,2.181h19.63a2.181,2.181,0,0,0,2.181-2.181v-2.181A2.181,2.181,0,0,0,29.811,280Zm0,0" transform="translate(-6.917 -241.831)" fill="#c49a6c"/>
      <path id="Path_1287532" data-name="Path 1287532" d="M31.992,108A12,12,0,1,1,20,96,12,12,0,0,1,31.992,108Zm0,0" transform="translate(-6.917 -82.914)" fill="#ff9811"/>
      <path id="Path_1287533" data-name="Path 1287533" d="M320,304h4.362v14.177H320Zm0,0" transform="translate(-276.386 -262.56)" fill="#ffcd00"/>
      <path id="Path_1287534" data-name="Path 1287534" d="M384,272h4.362v18.539H384Zm0,0" transform="translate(-331.662 -234.922)" fill="#ff3051"/>
      <path id="Path_1287535" data-name="Path 1287535" d="M256,336h4.362v9.815H256Zm0,0" transform="translate(-221.111 -290.197)" fill="#9cdd05"/>
      <path id="Path_1287536" data-name="Path 1287536" d="M224,292.354h33.807V264C257.807,279.672,242.686,292.354,224,292.354Zm0,0" transform="translate(-193.473 -228.012)" fill="#c9eeae"/>
      <path id="Path_1287537" data-name="Path 1287537" d="M25.925,126.252a3.246,3.246,0,0,0,.24-1.217v-2.181a3.252,3.252,0,0,0-.85-2.181,3.252,3.252,0,0,0,.85-2.181V116.31a3.272,3.272,0,0,0-3.272-3.272h-4.6a13.087,13.087,0,1,0-10.427,0h-4.6A3.272,3.272,0,0,0-.008,116.31v2.181a3.252,3.252,0,0,0,.85,2.181,3.252,3.252,0,0,0-.85,2.181v2.181a3.271,3.271,0,0,0,2.421,3.145,3.246,3.246,0,0,0-.24,1.217v2.181a3.246,3.246,0,0,0,.24,1.217A3.271,3.271,0,0,0-.008,135.94v2.181a3.272,3.272,0,0,0,3.272,3.272h19.63a3.272,3.272,0,0,0,3.272-3.272V135.94a3.246,3.246,0,0,0-.24-1.217,3.271,3.271,0,0,0,2.421-3.145V129.4A3.271,3.271,0,0,0,25.925,126.252ZM2.173,101.043a10.905,10.905,0,1,1,10.905,10.905A10.905,10.905,0,0,1,2.173,101.043Zm0,15.268a1.091,1.091,0,0,1,1.091-1.091h19.63a1.091,1.091,0,0,1,1.091,1.091v2.181a1.091,1.091,0,0,1-1.091,1.091V117.4H20.712v2.181H18.531V117.4H16.35v2.181H14.169V117.4H11.988v2.181H9.807V117.4H7.626v2.181H5.445V117.4H3.264v2.181a1.091,1.091,0,0,1-1.091-1.091Zm0,8.724v-2.181a1.091,1.091,0,0,1,1.091-1.091h19.63a1.091,1.091,0,0,1,1.091,1.091v2.181a1.091,1.091,0,0,1-1.091,1.091v-2.181H20.712v2.181H18.531v-2.181H16.35v2.181H14.169v-2.181H11.988v2.181H9.807v-2.181H7.626v2.181H5.445v-2.181H3.264v2.181A1.091,1.091,0,0,1,2.173,125.034Zm21.811,13.086a1.091,1.091,0,0,1-1.091,1.091V137.03H20.712v2.181H18.531V137.03H16.35v2.181H14.169V137.03H11.988v2.181H9.807V137.03H7.626v2.181H5.445V137.03H3.264v2.181a1.091,1.091,0,0,1-1.091-1.091V135.94a1.091,1.091,0,0,1,1.091-1.091h19.63a1.091,1.091,0,0,1,1.091,1.091Zm2.181-6.543a1.091,1.091,0,0,1-1.091,1.091v-2.181H22.893v2.181H20.712v-2.181H18.531v2.181H16.35v-2.181H14.169v2.181H11.988v-2.181H9.807v2.181H7.626v-2.181H5.445v2.181a1.091,1.091,0,0,1-1.091-1.091V129.4a1.091,1.091,0,0,1,1.091-1.091h19.63a1.091,1.091,0,0,1,1.091,1.091Zm0,0" transform="translate(0 -75.96)"/>
      <path id="Path_1287538" data-name="Path 1287538" d="M69.453,143.268v-2.29c1.9-.356,3.272-1.611,3.272-3.162,0-1.834-1.916-3.272-4.362-3.272-1.332,0-2.181-.645-2.181-1.091s.849-1.091,2.181-1.091,2.181.645,2.181,1.091h2.181c0-1.55-1.373-2.8-3.272-3.162V128H67.272v2.29c-1.9.356-3.272,1.611-3.272,3.162,0,1.834,1.916,3.272,4.362,3.272,1.332,0,2.181.645,2.181,1.091s-.849,1.091-2.181,1.091-2.181-.645-2.181-1.091H64c0,1.55,1.373,2.8,3.272,3.162v2.29Zm0,0" transform="translate(-55.284 -110.551)"/>
      <path id="Path_1287539" data-name="Path 1287539" d="M148.439,0H112V10.905h2.181V2.181H146.9V15.268h13.086V63.251h-34.9v2.181h37.078V13.725Zm.639,3.723,9.363,9.363h-9.363Zm0,0" transform="translate(-96.74)"/>
      <path id="Path_1287540" data-name="Path 1287540" d="M258.173,282.539V264H251.63v18.539h-2.181V268.362h-6.543v14.177h-2.181v-9.815h-6.543v9.815H232v2.181h28.354v-2.181Zm-21.811,0v-7.634h2.181v7.634Zm17.449-16.358h2.181v16.358h-2.181Zm-8.724,4.362h2.181v12h-2.181Zm0,0" transform="translate(-200.382 -228.012)"/>
      <path id="Path_1287541" data-name="Path 1287541" d="M265.292,184v2.181H269.2l-6.092,6.092-4.362-4.362-8.4,8.4,1.542,1.542,6.863-6.863,4.362,4.362,7.634-7.634v3.911h2.181V184Zm0,0" transform="translate(-216.226 -158.918)"/>
      <path id="Path_1287542" data-name="Path 1287542" d="M208,64h2.181v2.181H208Zm0,0" transform="translate(-179.654 -55.276)"/>
      <path id="Path_1287543" data-name="Path 1287543" d="M240,64h13.086v2.181H240Zm0,0" transform="translate(-207.292 -55.276)"/>
      <path id="Path_1287544" data-name="Path 1287544" d="M208,96h2.181v2.181H208Zm0,0" transform="translate(-179.654 -82.914)"/>
      <path id="Path_1287545" data-name="Path 1287545" d="M240,96h13.086v2.181H240Zm0,0" transform="translate(-207.292 -82.914)"/>
      <path id="Path_1287546" data-name="Path 1287546" d="M208,128h2.181v2.181H208Zm0,0" transform="translate(-179.654 -110.551)"/>
      <path id="Path_1287547" data-name="Path 1287547" d="M240,128h13.086v2.181H240Zm0,0" transform="translate(-207.292 -110.551)"/>
    </g>
  </g>
</svg>
