<svg xmlns="http://www.w3.org/2000/svg" xmlns:xlink="http://www.w3.org/1999/xlink" width="118" height="118" viewBox="0 0 118 118">
  <defs>
    <filter id="Rectangle_411831" x="0" y="0" width="118" height="118" filterUnits="userSpaceOnUse">
      <feOffset dy="3" input="SourceAlpha"/>
      <feGaussianBlur stdDeviation="3" result="blur"/>
      <feFlood flood-opacity="0.161"/>
      <feComposite operator="in" in2="blur"/>
      <feComposite in="SourceGraphic"/>
    </filter>
  </defs>
  <g id="Group_1205603" data-name="Group 1205603" transform="translate(3067 6474)">
    <g id="Group_1204887" data-name="Group 1204887" transform="translate(-3858.781 -8430)">
      <g id="Group_1203409" data-name="Group 1203409" transform="translate(465 -1896)">
        <g transform="matrix(1, 0, 0, 1, 326.78, 3852)" filter="url(#Rectangle_411831)">
          <g id="Rectangle_411831-2" data-name="Rectangle 411831" transform="translate(9 6)" fill="#ffc94a" stroke="#fff" stroke-width="2">
            <path d="M5,0H68a32,32,0,0,1,32,32V95a5,5,0,0,1-5,5H32A32,32,0,0,1,0,68V5A5,5,0,0,1,5,0Z" stroke="none"/>
            <path d="M5,1H68A31,31,0,0,1,99,32V95a4,4,0,0,1-4,4H32A31,31,0,0,1,1,68V5A4,4,0,0,1,5,1Z" fill="none"/>
          </g>
        </g>
      </g>
    </g>
    <g id="Shovel" transform="translate(-3043.276 -6452.425)">
      <g id="Filled" transform="translate(1.363 0.59)">
        <path id="Path_1287760" data-name="Path 1287760" d="M110.807,38.929,95.97,24.091l9.644-9.644c10.272-10.272,20.03-5.194,20.03-5.194s5.079,9.758-5.194,20.03Z" transform="translate(-84.047 -7.998)" fill="#e2dbd5"/>
        <path id="Path_1287761" data-name="Path 1287761" d="M298.1,162.355l-7.418,7.418-2.968-2.967,7.418-7.419a2.1,2.1,0,0,0-2.967-2.967l-7.418,7.419-2.967-2.968,7.418-7.418a2.1,2.1,0,0,0-2.967-2.968l-13.353,13.354a10.491,10.491,0,1,0,14.837,14.837l13.354-13.353a2.1,2.1,0,1,0-2.968-2.967Z" transform="translate(-234.248 -130.582)" fill="#e2dbd5"/>
        <path id="Path_1287762" data-name="Path 1287762" d="M3.126,0h.042A3.127,3.127,0,0,1,6.295,3.127V16.786H0V3.127A3.127,3.127,0,0,1,3.126,0Z" transform="translate(26.018 12.381) rotate(45)" fill="#c4bcb7"/>
        <path id="Path_1287763" data-name="Path 1287763" d="M160.586,376.578l8.9-8.9-5.935-5.935-8.9,8.9a5.246,5.246,0,1,0,5.935,5.935Z" transform="translate(-130.858 -313.647)" fill="#81c784"/>
        <path id="Path_1287764" data-name="Path 1287764" d="M18.715,195.769l8.9-8.9-5.935-5.935-8.9,8.9a5.246,5.246,0,1,0,5.935,5.935Z" transform="translate(-8.276 -157.42)" fill="#81c784"/>
        <path id="Path_1287765" data-name="Path 1287765" d="M269.9,294.718a10.491,10.491,0,0,0,17.808,8.873l9.15-9.15a28.314,28.314,0,0,1-26.958.277Z" transform="translate(-234.244 -255.497)" fill="#d9d1cc"/>
        <path id="Path_1287766" data-name="Path 1287766" d="M97.362,73.39,95.97,74.782l14.837,14.837,9.644-9.644c4.884-4.884,6.3-9.652,6.436-13.31A28.313,28.313,0,0,1,97.362,73.39Z" transform="translate(-84.047 -58.689)" fill="#d9d1cc"/>
        <path id="Path_1287767" data-name="Path 1287767" d="M3.126,0h.042A3.127,3.127,0,0,1,6.295,3.127V16.786H0V3.127A3.127,3.127,0,0,1,3.126,0Z" transform="translate(26.018 12.381) rotate(45)" fill="#c4bcb7"/>
        <path id="Path_1287768" data-name="Path 1287768" d="M3.126,0h.042A3.127,3.127,0,0,1,6.295,3.127V16.786H0V3.127A3.127,3.127,0,0,1,3.126,0Z" transform="translate(45.307 36.958) rotate(45)" fill="#c4bcb7"/>
        <path id="Path_1287769" data-name="Path 1287769" d="M22.6,261.494a19.674,19.674,0,0,1-13.57.434,5.246,5.246,0,1,0,9.686,3.45Z" transform="translate(-8.274 -227.029)" fill="#66bb6a"/>
        <path id="Path_1287770" data-name="Path 1287770" d="M164.35,443.171a19.672,19.672,0,0,1-13.487.373,5.246,5.246,0,1,0,9.721,3.393Z" transform="translate(-130.856 -384.006)" fill="#66bb6a"/>
        <g id="Group_1205602" data-name="Group 1205602" transform="translate(31.505 2.185)">
          <circle id="Ellipse_13097" data-name="Ellipse 13097" cx="1.903" cy="1.903" r="1.903" transform="translate(1.269)" fill="#efebe8"/>
          <circle id="Ellipse_13098" data-name="Ellipse 13098" cx="1.269" cy="1.269" r="1.269" transform="translate(0 5.076)" fill="#efebe8"/>
          <circle id="Ellipse_13099" data-name="Ellipse 13099" cx="1.903" cy="1.903" r="1.903" transform="translate(12.145 26.175)" fill="#efebe8"/>
          <circle id="Ellipse_13100" data-name="Ellipse 13100" cx="1.269" cy="1.269" r="1.269" transform="translate(10.877 31.251)" fill="#efebe8"/>
        </g>
        <circle id="Ellipse_13101" data-name="Ellipse 13101" cx="1.903" cy="1.903" r="1.903" transform="translate(29.873 50.113)" fill="#c8e6c9"/>
        <circle id="Ellipse_13102" data-name="Ellipse 13102" cx="1.269" cy="1.269" r="1.269" transform="translate(28.604 55.189)" fill="#c8e6c9"/>
        <circle id="Ellipse_13103" data-name="Ellipse 13103" cx="1.903" cy="1.903" r="1.903" transform="translate(11.02 25.026)" fill="#c8e6c9"/>
        <circle id="Ellipse_13104" data-name="Ellipse 13104" cx="1.269" cy="1.269" r="1.269" transform="translate(9.752 30.102)" fill="#c8e6c9"/>
      </g>
      <g id="Outline" transform="translate(0.276 -0.575)">
        <path id="Path_1287771" data-name="Path 1287771" d="M187.041,154.376l-6.65,6.648-1.428-1.429,6.648-6.65c2.913-2.921-1.5-7.511-4.5-4.506l-6.65,6.651-1.429-1.43,6.649-6.648c2.915-2.922-1.5-7.51-4.5-4.506l-6.779,6.779a1.088,1.088,0,1,0,1.538,1.538l6.779-6.779a1.012,1.012,0,0,1,1.725.715c0,.786-.247.522-7.714,8.133a1.088,1.088,0,0,0,0,1.538c.505.505,3.1,3.287,3.736,3.287.808,0,.4-.111,8.188-7.738a1.012,1.012,0,0,1,1.724.715c0,.786-.243.518-7.714,8.134a1.088,1.088,0,0,0,0,1.538l2.967,2.967a1.088,1.088,0,0,0,1.538,0l7.421-7.42a1.011,1.011,0,0,1,1.724.715c0,.792.091.178-13.649,14.068a9.363,9.363,0,0,1-9.595,2.285l5.213-5.213c3.973-4.069-2.09-9.836-5.989-5.989l-5.21,5.21a9.459,9.459,0,0,1,1.363-8.525,1.088,1.088,0,0,0-1.749-1.294,11.647,11.647,0,0,0-1.3,11.5l-2,2a1.086,1.086,0,0,0-1.509.026l-8.659,8.659a6.334,6.334,0,1,0,7.473,7.473l8.658-8.659a1.087,1.087,0,0,0,.026-1.509l2-2a11.529,11.529,0,0,0,12.815-2.429l13.354-13.354c2.906-2.915-1.5-7.52-4.506-4.505ZM152.608,186.15a4.158,4.158,0,1,1-4.7-4.7c.666-.094.375-.173,8.749-8.441l4.4,4.4C152.551,186.009,152.7,185.494,152.608,186.15Zm9.237-11.029-2.913-2.913,8.89-8.89c1.815-1.815,4.886.94,2.913,2.913Z" transform="translate(-122.87 -122.206)"/>
        <circle id="Ellipse_13105" data-name="Ellipse 13105" cx="1.088" cy="1.088" r="1.088" transform="translate(24.534 62.267)"/>
        <path id="Path_1287772" data-name="Path 1287772" d="M21.5,29.3l1.43-1.43c4.473,4.316,4.391,4.743,5.194,4.743.858,0,.442-.161,10.414-9.963,7.189-7.067,8.153-15.989,5.388-21.3-.4-.771-5.685-3.387-13.014-.811-1.255.441-.672,2.542.722,2.052a15,15,0,0,1,10.506.083C44.226,7.676,43.386,14.72,37,21.107l-8.876,8.876-3.655-3.655L30.391,20.4c3.971-4.068-2.088-9.837-5.989-5.989l-5.923,5.923-3.655-3.654,8.332-8.332C24.1,7.4,22.65,5.76,21.618,6.814l-9.1,9.1a1.088,1.088,0,0,0,0,1.538l4.424,4.424-1.43,1.431A1.087,1.087,0,0,0,14,23.333L5.342,31.991a6.334,6.334,0,1,0,7.473,7.473l8.658-8.659A1.088,1.088,0,0,0,21.5,29.3Zm-10.774,9.49A4.158,4.158,0,1,1,3.67,35.258c1.363-1.363,2.4-.919,2.968-1.484l8.133-8.133,4.4,4.4C10.668,38.645,10.819,38.13,10.726,38.786ZM17.05,24.844c3.006-3.005,2.006-2,2.212-2.212,6.684-6.419,6.647-7.275,8.119-7.275a2.07,2.07,0,0,1,1.471,3.51l-8.89,8.89Z" transform="translate(-0.276 0.575)"/>
        <circle id="Ellipse_13106" data-name="Ellipse 13106" cx="1.088" cy="1.088" r="1.088" transform="translate(5.207 37.646)"/>
        <circle id="Ellipse_13107" data-name="Ellipse 13107" cx="1.088" cy="1.088" r="1.088" transform="translate(24.979 3.341)"/>
        <circle id="Ellipse_13108" data-name="Ellipse 13108" cx="1.088" cy="1.088" r="1.088" transform="translate(41.293 30.533)"/>
      </g>
    </g>
  </g>
</svg>
